<?xml version="1.0" encoding="UTF-8" standalone="no"?>
<svg
   xmlns:dc="http://purl.org/dc/elements/1.1/"
   xmlns:cc="http://creativecommons.org/ns#"
   xmlns:rdf="http://www.w3.org/1999/02/22-rdf-syntax-ns#"
   xmlns:svg="http://www.w3.org/2000/svg"
   xmlns="http://www.w3.org/2000/svg"
   xmlns:sodipodi="http://sodipodi.sourceforge.net/DTD/sodipodi-0.dtd"
   xmlns:inkscape="http://www.inkscape.org/namespaces/inkscape"
   version="1.1"
   x="0px"
   y="0px"
   viewBox="120 31 51.15 95.999999"
   xml:space="preserve"
   id="svg2"
   inkscape:version="0.48.4 r9939"
   width="100%"
   height="100%"
   sodipodi:docname="vecs_icon.svg"><metadata
     id="metadata16"><rdf:RDF><cc:Work
         rdf:about=""><dc:format>image/svg+xml</dc:format><dc:type
           rdf:resource="http://purl.org/dc/dcmitype/StillImage" /></cc:Work></rdf:RDF></metadata><defs
     id="defs14" /><sodipodi:namedview
     pagecolor="#ffffff"
     bordercolor="#666666"
     borderopacity="1"
     objecttolerance="10"
     gridtolerance="10"
     guidetolerance="10"
     inkscape:pageopacity="0"
     inkscape:pageshadow="2"
     inkscape:window-width="1920"
     inkscape:window-height="1056"
     id="namedview12"
     showgrid="false"
     inkscape:zoom="5.3400704"
     inkscape:cx="24.440808"
     inkscape:cy="46.433938"
     inkscape:window-x="0"
     inkscape:window-y="24"
     inkscape:window-maximized="1"
     inkscape:current-layer="svg2"
     units="px"
     fit-margin-top="0"
     fit-margin-left="0"
     fit-margin-right="0"
     fit-margin-bottom="0" /><style
     type="text/css"
     id="style4">
	.st0{fill:#010202;}
</style><g
     id="g2984"
     transform="translate(-23.13774,-15.108441)"
     style="fill:#1d5c97;fill-opacity:1"><path
       sodipodi:nodetypes="ssccssccsccccccccccccccccccc"
       style="fill:#1d5c97;fill-opacity:1"
       inkscape:connector-curvature="0"
       id="path6"
       d="m 179.51274,121.30844 c -7.2,0.5 -14.4,0.5 -21.6,0 -7.2,-0.5 -13.9,-7.4 -14.4,-14.5 -0.5,-8.499999 -0.5,-16.899999 0,-25.399999 0.5,-7.2 7.2,-14 14.4,-14.5 7.2,-0.5 14.4,-0.5 21.6,0 7.2,0.5 13.9,7.4 14.4,14.5 0.5,8.5 0.5,16.9 0,25.399999 -0.5,7.1 -7.2,14 -14.4,14.5 z m -22,-45.499999 c -2.7,0.1 -4.9,2.4 -5,5.1 -0.3,8.8 -0.3,17.6 0,26.399999 0.1,2.7 2.4,5 5,5.1 7.5,0.3 14.9,0.3 22.4,0 2.7,-0.1 4.9,-2.4 5,-5.1 0.3,-8.799999 0.3,-17.599999 0,-26.399999 -0.1,-2.7 -2.4,-5 -5,-5.1 -7.4,-0.3 -14.9,-0.3 -22.4,0 z m 23.4,-29.7 -24.4,0 -1.4,18.3 27.3,0 z m 1.5,77.699999 -27.3,0 1.4,18.3 24.4,0 z"
       class="st0" /><path
       style="fill:#1d5c97;fill-opacity:1"
       d="m 177.84154,90.263805 c 0.16952,-0.07789 0.3306,-0.1699 0.47804,-0.279921 0.90997,-0.682032 0.9931,-1.747191 0.25461,-2.501761 -0.0721,-0.09006 -0.15393,-0.175742 -0.25461,-0.251198 -0.11369,-0.08519 -0.24292,-0.154809 -0.38191,-0.212739 l -9.29458,-5.784865 c -1.0048,-0.753109 -2.63444,-0.753109 -3.63923,0 -0.55533,0.416229 -0.80215,0.975584 -0.7437,1.519847 -0.005,0.05744 -0.009,0.114399 -0.009,0.17282 v 4.77131 l -1.45167,-0.964388 c -1.60105,-1.200009 -3.71328,-1.562201 -4.71873,-0.808606 -1.0048,0.753108 -0.52156,2.336729 1.07884,3.536737 l 5.09091,3.382416 v 1.380135 l -4.62455,3.061599 c -1.55364,1.164465 -1.99791,2.718879 -0.99312,3.471989 1.0048,0.75311 3.07871,0.42013 4.63236,-0.74435 l 0.98531,-0.65233 v 4.80879 c 0,0.0584 0.005,0.11543 0.009,0.17282 -0.0585,0.54426 0.18837,1.10362 0.7437,1.51984 1.00479,0.75311 2.63443,0.75311 3.63923,0 l 9.30627,-5.79216 c 0.13507,-0.056 0.26045,-0.123168 0.37087,-0.205926 0.0961,-0.0721 0.17407,-0.153351 0.24356,-0.239517 0.75084,-0.755047 0.6716,-1.827517 -0.24356,-2.513441 -0.15523,-0.116325 -0.32736,-0.212742 -0.50792,-0.293549 -0.17083,-0.167949 -0.36049,-0.332501 -0.57092,-0.490224 l -4.19718,-2.788502 4.28356,-2.835716 c 0.18771,-0.141178 0.35919,-0.288683 0.51442,-0.43911 z m -5.23706,-1.571938 -3.20795,2.123989 v -4.120431 l 3.20795,1.996442 z m -3.20795,7.570514 3.21575,2.136158 -3.21575,2.001321 v -4.137479 z"
       id="path10-1"
       inkscape:connector-curvature="0" /></g></svg>